<svg xmlns="http://www.w3.org/2000/svg" viewBox="0 0 1364 960"><ellipse cx="682" cy="839.498" fill="#FFF4E9" rx="426.875" ry="31.723"/><path fill="#FFF4E9" d="M480.509 390.374c59.063 12.931 105.4 49.151 126.642 68.344-15.212-24.253-42.836-76.175-45.314-136.586a208.396 208.396 0 0 0-4.643-5.739c-50.234-59.866-126.581-81.474-140.863-85.086 1.082 14.698 9.123 93.662 59.332 153.499a207.32 207.32 0 0 0 4.846 5.568zM883.858 389.368a209.169 209.169 0 0 0 4.846-5.569c50.234-59.866 58.255-138.806 59.333-153.498-14.286 3.618-90.655 25.249-140.864 85.086a208.042 208.042 0 0 0-4.643 5.739c-2.479 60.411-30.102 112.334-45.314 136.586 21.242-19.193 67.579-55.413 126.642-68.344zM628.784 289.766c0 2.473.045 4.934.132 7.381 36.933 47.871 49.147 105.402 53.083 133.759 3.936-28.357 16.151-85.888 53.083-133.758.087-2.447.132-4.908.132-7.381 0-78.15-44.596-143.777-53.215-155.725-8.617 11.953-53.215 77.613-53.215 155.724zM567.691 528.136c-27.242-8.8-81.778-30.819-122.508-75.504-2.395-.51-4.81-.983-7.246-1.412-76.962-13.571-149.337 18.952-162.6 25.365 10.276 10.564 67.194 65.885 144.118 79.449 2.436.43 4.867.812 7.292 1.151 53.557-28.059 112.334-30.098 140.944-29.049z"/><path fill="#FFF4E9" d="M1179.807 456.036c-1.272-.668-128.759-66.61-265.237-42.542-1.415.249-2.818.521-4.225.787.934-1.084 1.87-2.164 2.794-3.264 89.083-106.165 95.72-249.539 95.776-250.975l.146-3.702-3.62.787c-1.404.305-141.448 31.737-230.53 137.901-.923 1.1-1.824 2.21-2.73 3.318.019-1.431.042-2.86.042-4.296 0-138.59-87.076-252.685-87.956-253.821L682 37.3l-2.268 2.93c-.879 1.136-87.956 115.231-87.956 253.821 0 1.436.023 2.865.042 4.296-.905-1.108-1.806-2.218-2.73-3.318-89.083-106.165-229.126-137.596-230.53-137.901l-3.62-.787.146 3.702c.057 1.436 6.693 144.809 95.776 250.975.923 1.1 1.86 2.18 2.794 3.264-1.406-.267-2.81-.538-4.225-.787-136.474-24.072-263.966 41.874-265.237 42.542l-3.278 1.724 2.491 2.743c.966 1.063 98.208 106.628 234.692 130.694 1.419.25 2.834.466 4.251.697-1.253.702-2.507 1.398-3.755 2.119C298.572 663.309 243.3 795.766 242.755 797.095l-1.403 3.429 3.671.499c.497.068 18.117 2.344 45.952 2.344 52.008-.001 139.663-7.946 217.841-53.082 1.243-.718 2.47-1.453 3.699-2.185-.507 1.338-1.017 2.673-1.509 4.023h341.987c-.491-1.349-1.002-2.684-1.509-4.021 1.229.731 2.455 1.465 3.699 2.183 78.185 45.141 165.836 53.082 217.841 53.082 27.827 0 45.456-2.276 45.952-2.344l3.671-.499-1.403-3.429c-.544-1.329-55.816-133.786-175.837-203.081-1.248-.721-2.502-1.418-3.755-2.119 1.417-.231 2.831-.447 4.25-.697 136.484-24.066 233.726-129.631 234.693-130.694l2.491-2.743-3.279-1.725zm-400.503-157.32c79.713-94.999 200.96-129.343 223.642-135.086-1.711 23.327-14.447 148.654-94.2 243.7a329.488 329.488 0 0 1-7.695 8.843c-93.77 20.53-167.337 78.034-201.062 108.505 24.152-38.504 68.009-120.939 71.943-216.85a330.717 330.717 0 0 1 7.372-9.112zm114.752 124.975c-73.296 76.52-171.727 108.497-202.823 117.096 22.967-22.607 99.874-91.872 202.823-117.096zM361.057 163.629c22.674 5.736 143.887 40.04 223.64 135.087a330.32 330.32 0 0 1 7.371 9.112c3.935 95.912 47.792 178.346 71.943 216.85-33.725-30.471-107.291-87.975-201.063-108.505a331.02 331.02 0 0 1-7.694-8.843c-79.712-94.998-92.481-220.366-94.197-243.701zm311.714 377.162c-31.085-8.588-129.502-40.54-202.828-117.1 102.956 25.225 179.865 94.497 202.828 117.1zM419.092 585.55C296.965 564.015 206.6 476.184 190.286 459.414c21.066-10.18 136.022-61.8 258.149-40.272a331.78 331.78 0 0 1 11.506 2.243c64.664 70.942 151.247 105.9 194.498 119.871-45.422-1.664-138.741 1.572-223.77 46.121a328.411 328.411 0 0 1-11.577-1.827zm252.412-37.583c-29.344 13.4-125.31 52.184-230.66 40.672 95.055-46.845 198.503-43.226 230.66-40.672zm-165.556 197.35c-107.396 62.005-233.077 52.811-256.355 50.448 9.595-21.339 64.471-134.779 171.868-196.785a329.682 329.682 0 0 1 10.27-5.686c16.4 2.203 32.609 3.186 48.43 3.185 75.932-.002 142.757-22.225 177.607-36.374-35.863 27.92-105.274 90.385-141.777 179.171a326.293 326.293 0 0 1-10.043 6.041zm18.65-11.616c42.705-96.987 124.276-160.708 150.552-179.421-13.865 29.124-62.453 120.521-150.552 179.421zm73.649-417.692c62.644 85.482 77.042 187.994 80.109 220.1-18.29-26.555-73.154-114.304-80.109-220.1zm-.524-10.239a330.11 330.11 0 0 1-.21-11.719c0-124.012 70.805-228.257 84.488-247.236 13.683 18.969 84.487 123.162 84.487 247.236 0 3.927-.072 7.834-.21 11.719-58.636 76.002-78.029 167.34-84.277 212.361-6.25-45.021-25.642-136.359-84.278-212.361zm168.029 10.239c-6.958 105.749-61.822 193.531-80.111 220.098 3.06-32.1 17.436-134.584 80.111-220.098zM688.85 554.28c26.276 18.713 107.847 82.434 150.552 179.422-88.098-58.9-136.686-150.297-150.552-179.422zm253.689 44.7c107.397 62.006 162.272 175.446 171.867 196.785-23.278 2.359-148.958 11.556-256.355-50.448a330.742 330.742 0 0 1-10.043-6.041c-36.501-88.782-105.906-151.245-141.772-179.167 34.85 14.151 101.668 36.371 177.601 36.369 15.814 0 32.031-.983 48.431-3.185a335.134 335.134 0 0 1 10.271 5.687zm-250.043-51.013c32.159-2.555 135.603-6.174 230.659 40.671-105.345 11.509-201.314-27.271-230.659-40.671zm252.411 37.583a330.399 330.399 0 0 1-11.577 1.828c-85.031-44.549-178.353-47.784-223.774-46.12 43.25-13.971 129.836-48.928 194.502-119.872a327.13 327.13 0 0 1 11.506-2.243c122.126-21.533 237.082 30.093 258.15 40.272-16.312 16.777-106.627 104.59-228.807 126.135z"/><path fill="#FFF4E9" d="M927.357 449.678c-2.436.429-4.851.901-7.246 1.412-40.73 44.684-95.266 66.703-122.509 75.504 28.609-1.048 87.387.991 140.944 29.05 2.425-.34 4.856-.722 7.292-1.151 76.962-13.57 133.849-68.886 144.118-79.448-13.268-6.412-85.675-38.93-162.599-25.367zM784.264 605.321c22.59 17.587 66.306 56.931 89.297 112.851a208.458 208.458 0 0 0 6.326 3.805c67.68 39.075 146.813 33.267 161.469 31.777-6.043-13.441-40.608-84.893-108.254-123.949a207.494 207.494 0 0 0-6.458-3.576c-59.923 8.05-115.854-10.138-142.38-20.908zM439.704 627.585a206.353 206.353 0 0 0-6.458 3.576c-67.68 39.075-102.216 110.51-108.254 123.948 14.662 1.487 93.824 7.28 161.47-31.776a208.458 208.458 0 0 0 6.326-3.805c22.991-55.92 66.707-95.263 89.297-112.851-26.527 10.77-82.458 28.957-142.381 20.908z"/><path fill="#FF9959" d="M440.844 777.276c0 33.883-25.348 61.37-86.703 61.351-56.89-.018-86.703-27.468-86.703-61.351 0-.471 173.406-.471 173.406 0z"/><path fill="#F0DED3" d="M428.724 777.085c-4.233 29.628-30.245 52.388-86.075 52.37-25.381-.008-45.368-5.479-59.727-14.543 14.234 14.424 38.15 23.705 71.219 23.715 61.355.019 86.703-27.468 86.703-61.351 0-.076-4.531-.14-12.12-.191z"/><ellipse cx="354.141" cy="777.276" fill="#F5C167" rx="86.703" ry="17.376"/><ellipse cx="354.141" cy="776.774" fill="#FFF2BD" rx="69.442" ry="11.578"/><path fill="#E0543C" d="M351.87 708.101h4.541v69.175h-4.541z"/><path fill="#E0543C" d="M361.739 687.218s-4.22 12.325 4.595 27.35c8.815 15.025 11.671 38.914-11.584 43.845-23.255 4.931-26.558-39.237-3.855-59.282 0 0-7.676 15.396-4.326 26.683 0 0-1.977-21.45 15.17-38.596z"/><path fill="#FF9959" d="M348.355 702.808s-20.485 32.262-5.697 50.101c5.361 6.467 12.426 6.352 16.8 4.396 7.694-3.439 11.146-14.372 11.548-18.097 1.967-18.254-14.559-27.813-11.616-46.061-6.059 9.072-11.501 13.825-11.733 40.016 0 .001-8.158-7.19.698-30.355z"/><path fill="#F5C167" d="M341.742 727.474c-.529 6.311-1.293 21.393 6.008 28.943 5.894 6.096 16.276 1.487 17.54-8.077 1.716-12.981-9.736-21.65-7.045-38.121 0 0-10.215 12.551-8.419 25.333-.002.001-5.053 2.04-8.084-8.078z"/><path fill="#FCED9E" d="M354.134 730.24c-2.851 3.582-8.791 30.882 1.663 28.822 10.291-2.029-1.227-17.691-1.663-28.822z"/><path fill="#999" d="M275.382 793.358c-1.7-1.875 15.786 5.089 41.271 6.849 21.766 1.502-25.945 10.05-41.271-6.849z"/><path fill="#FF9959" d="M1096.561 777.276c0 33.883-25.348 61.37-86.703 61.351-56.89-.018-86.703-27.468-86.703-61.351 0-.471 173.406-.471 173.406 0z"/><path fill="#F0DED3" d="M1084.441 777.085c-4.233 29.628-30.245 52.388-86.075 52.37-25.381-.008-45.368-5.479-59.727-14.543 14.234 14.424 38.15 23.705 71.219 23.715 61.355.019 86.703-27.468 86.703-61.351 0-.076-4.531-.14-12.12-.191z"/><ellipse cx="1009.858" cy="777.276" fill="#F5C167" rx="86.703" ry="17.376"/><ellipse cx="1009.858" cy="776.774" fill="#FFF2BD" rx="69.442" ry="11.578"/><path fill="#E0543C" d="M1007.588 708.101h4.541v69.175h-4.541z"/><path fill="#E0543C" d="M1017.456 687.218s-4.22 12.325 4.595 27.35c8.815 15.025 11.671 38.914-11.584 43.845s-26.558-39.237-3.856-59.282c0 0-7.676 15.396-4.326 26.683.001 0-1.976-21.45 15.171-38.596z"/><path fill="#FF9959" d="M1004.072 702.808s-20.485 32.262-5.697 50.101c5.361 6.467 12.425 6.352 16.8 4.396 7.694-3.439 11.146-14.372 11.548-18.097 1.967-18.254-14.559-27.813-11.616-46.061-6.059 9.072-11.501 13.825-11.733 40.016 0 .001-8.158-7.19.698-30.355z"/><path fill="#F5C167" d="M997.459 727.474c-.529 6.311-1.293 21.393 6.008 28.943 5.894 6.096 16.276 1.487 17.54-8.077 1.716-12.981-9.736-21.65-7.045-38.121 0 0-10.215 12.551-8.419 25.333-.002.001-5.053 2.04-8.084-8.078z"/><path fill="#FCED9E" d="M1009.852 730.24c-2.851 3.582-8.791 30.882 1.663 28.822 10.29-2.029-1.228-17.691-1.663-28.822z"/><path fill="#999" d="M931.099 793.358c-1.7-1.875 15.786 5.089 41.271 6.849 21.766 1.502-25.944 10.05-41.271-6.849z"/><path fill="#FFCCBD" d="M563.805 384.679s12.316 18.9 14.684 30.488c2.756 13.49 20.962 5.292 19.452-10.56-1.126-11.817-34.136-19.928-34.136-19.928zM813.551 384.679s-12.316 18.9-14.684 30.488c-2.756 13.49-20.962 5.292-19.452-10.56 1.125-11.817 34.136-19.928 34.136-19.928z"/><path fill="#471C1C" d="M739.192 252.677c-6.647 28.204-23.166 42.879-51.744 42.879-28.577 0-45.237-13.381-51.744-42.879-3.01-13.646 4.192-30.63 19.459-35.083 15.616-4.555 11.811-21.519 32.285-21.519 21.082 0 17.549 18.121 32.653 22.419 16.396 4.665 22.337 20.411 19.091 34.183z"/><path fill="#FFCCBD" d="M829.786 820.688c-45.237 20.782-146.923 19.481-146.923 19.481s-89.642-.383-144.297-20.98c-54.611-20.596-91.14-112.13.219-121.987 74.432-8.031 49.421-138.387 51.072-184.309 0 0 1.029-4.173 1.79-6.088 6.096-15.172 24.512-26.541 42.136-32.851 0 0 48.814-1.574 51.463-2.056l50.004-1.543c18.071 6.296 37.378 20.953 43.595 36.489.761 1.914 1.791 6.049 1.791 6.049-.723 52.202-30.725 171.446 42.157 182.153 86.798 12.751 65.423 98.799 6.993 125.642z"/><path fill="#D6434B" d="M829.786 820.688c-45.237 20.782-146.923 19.481-146.923 19.481s-89.642-.383-144.297-20.98c-54.611-20.596-91.14-112.13.219-121.987 74.432-8.031 49.421-138.387 51.072-184.309 0 0 1.029-4.173 1.79-6.088 6.096-15.172 24.512-26.541 42.136-32.851l15.5 95.25c18.071 6.296 123.472 11.736 124.782 49.115 1.339 38.187 11.895 71.316 48.726 76.727 86.8 12.751 65.425 98.799 6.995 125.642z"/><path fill="#F0DED3" d="M829.784 820.679c-45.228 20.795-146.925 19.493-146.925 19.493s-89.633-.383-144.301-20.986c-10.857-4.098-21.006-10.991-29.565-19.512a53.698 53.698 0 0 0 3.944 1.647c54.649 20.604 144.301 20.986 144.301 20.986s101.677 1.302 146.925-19.493c42.758-19.627 65.678-70.983 40.862-102.099 60.088 23.189 37.532 95.742-15.241 119.964z"/><path fill="#FFCCBD" d="M633.784 473.955c1.226 4.595 3.006 10.302 6.07 15.951v.019c6.797 12.542 19.818 24.912 46.856 24.739 33.778-.23 48.541-32.82 48.541-44.309-6.185-1.245-12.561-2.087-18.631-2.681-4.002-.383-7.449-2.566-9.478-5.725a12.393 12.393 0 0 1-2.049-6.855V438.11h-45.056v19.914c0 6.185-4.481 11.431-10.57 12.503-5.248.919-10.59 2.049-15.683 3.428z"/><path fill="#FFB49E" d="M735.25 470.362c0 3.6-23.86 8.707-45.727-9.688-7.229-6.081-22.594-1.035-29.545-1.514.038-.364.057-.747.057-1.129v-19.914h45.056v16.984c0 2.528.747 4.883 2.049 6.855 2.03 3.159 5.476 5.342 9.478 5.725 6.07.594 12.447 1.436 18.632 2.681z"/><path fill="#FFCCBD" d="M784.606 399.383c9.991-.701 28.089-6.203 32.553-22.384 2.03-7.324.691-14.826-3.679-20.571-4.055-5.331-10.121-8.39-16.643-8.39-6.078 0-12.041 2.738-16.791 7.708L777.893 358l-.928 10.653-1.164 13.602-1.554 17.853 10.359-.725z"/><path fill="#FABCAA" d="m788.546 364.336-.528 6.06-.934 10.913-.525 6.039s16.571-1.161 19.771-12.762c3.044-10.982-8.844-19.606-17.784-10.25z"/><path fill="#FFCCBD" d="M590.569 396.6c-9.991-.701-28.089-6.203-32.553-22.384-2.03-7.324-.691-14.826 3.679-20.571 4.054-5.332 10.121-8.39 16.642-8.39 6.078 0 12.041 2.738 16.791 7.708l2.154 2.254.928 10.653 1.164 13.602 1.554 17.853-10.359-.725z"/><path fill="#FABCAA" d="m586.63 361.553.528 6.06.934 10.913.526 6.039s-16.571-1.161-19.771-12.762c-3.045-10.982 8.842-19.606 17.783-10.25z"/><path fill="#FFCCBD" d="M650.88 258.368h72.888c35.218 0 63.766 28.549 63.766 63.766v65.304c0 35.703-28.942 64.645-64.645 64.645h-71.13c-35.702 0-64.645-28.942-64.645-64.645v-65.304c0-35.217 28.549-63.766 63.766-63.766z"/><path fill="#471C1C" d="M796.167 336.974c.138 10.166-5.849 33.336-10.053 45.012-7.772-44.654-24.614-69.813-44.634-71.46-24.348-2.002-32.427 10.795-54.156 11.103-22.776.324-32.754-9.834-52.148-9.462-29.202.561-45.529 43.215-46.692 72.397 0 0-8.36-29.747-9.476-52.045-2.266-45.275 26.041-76.654 80.671-89.527 63.97-15.073 135.446 17.264 136.488 93.982z"/><path fill="#F0DED3" d="M681.998 745.12s-26.003 8.253-74.506-16.467c-34.046-17.348-69.087-22.365-97.139-24.242 7.621-3.485 17.042-5.974 28.435-7.2 6.472-.708 12.179-2.317 17.233-4.73 17.1 4.251 41.743 11.91 59.053 23.801 26.655 18.326 46.742 26.847 66.924 28.838zM803.284 688.403c-14.706 3.657-29.91 8.904-44.922 16.544-48.522 24.739-74.525 16.487-74.525 16.487 20.201-1.991 40.269-10.532 66.923-28.837 10.992-7.563 24.931-13.404 38.009-17.731 3.848 5.456 8.635 10.052 14.515 13.537z"/><path fill="#FABCAA" d="M618.891 404.606c0 4.246 5.087 7.688 11.362 7.688s11.362-3.442 11.362-7.688c0-4.246-5.087-7.688-11.362-7.688-6.276 0-11.362 3.442-11.362 7.688z"/><ellipse cx="744.396" cy="404.606" fill="#FABCAA" rx="11.362" ry="7.688"/><path fill="#D15A5A" d="M674.893 407.453c-1.503-.112-2.613 1.382-2.026 2.77 1.779 4.213 4.325 7.348 7.226 9.366v.08c6.263 4.54 14.249 4.225 20.043-.469 2.698-2.135 4.894-5.176 6.305-9.121.488-1.364-.627-2.763-2.07-2.642l-.243.019c-9.786 1.566-19.415 1.566-29.203 0l-.032-.003z"/><path fill="#E09E9E" d="M686.015 384.109c.452-.718 1-1.371 1.447-2.092.372-.6.795-1.374.695-2.11-.081-.595.144-1.196.778-1.37.52-.142 1.288.178 1.37.778.226 1.649-.373 3.075-1.31 4.409-.719 1.023-1.744 2.145-1.735 3.429.003.414.11.859.47 1.122.412.301 1.047.31 1.535.331 1.038.046 2.348.161 3.083-.639.972-1.057 2.544.521 1.575 1.575-1.09 1.186-2.754 1.345-4.273 1.305-1.71-.045-3.534-.371-4.291-2.116-.673-1.552-.21-3.248.656-4.622z"/><path fill="#65170F" d="M661.946 347.257s-21.956-20.564-37.172 0c0 0 13.867-10.685 37.172 0zM652.624 373.734c-2.786 1.651-6.196 2.446-9.523 2.067-1.879-.196-3.697-.77-5.357-1.617-1.614.613-2.136 1.902-2.331 2.63-.596-1.502-.046-2.895.538-3.694a15.601 15.601 0 0 1-1.486-1.163c-2.786.189-4.139 1.958-4.741 2.987-.29-2.608 1.257-4.518 2.487-5.423-.298-.393-.58-.796-.84-1.21-1.81-.48-3.019.374-3.601.902.323-1.644 1.618-2.521 2.55-2.851-.381-.832-.7-1.686-.937-2.559 2.091 2.262 4.19 4.282 6.553 5.764 2.345 1.492 4.906 2.431 7.543 2.711 2.636.288 5.341-.085 7.938-1.056 2.612-.956 5.077-2.492 7.533-4.351-1.308 2.794-3.529 5.219-6.326 6.863zM712.467 347.257s21.956-20.564 37.172 0c0 0-13.868-10.685-37.172 0zM721.789 373.734c2.786 1.651 6.195 2.446 9.523 2.067 1.879-.196 3.697-.77 5.357-1.617 1.614.613 2.136 1.902 2.331 2.63.596-1.502.046-2.895-.538-3.694a15.601 15.601 0 0 0 1.486-1.163c2.786.189 4.139 1.958 4.741 2.987.29-2.608-1.257-4.518-2.487-5.423.298-.393.58-.796.84-1.21 1.81-.48 3.019.374 3.601.902-.323-1.644-1.618-2.521-2.55-2.851.381-.832.7-1.686.937-2.559-2.091 2.262-4.19 4.282-6.553 5.764-2.345 1.492-4.906 2.431-7.543 2.711-2.636.288-5.341-.085-7.938-1.056-2.612-.956-5.077-2.492-7.533-4.351 1.307 2.794 3.529 5.219 6.326 6.863z"/><ellipse cx="689.633" cy="338.117" fill="#BE3639" rx="6.556" ry="6.355"/><path fill="#D6434B" d="M585.34 654.136c13.861-44.424 3.44-111.078 4.532-141.246 0 0 1.025-4.168 1.786-6.087 5.16-12.9 19.251-23.023 34.17-29.671.033 0 .066-.033.099-.033a139.395 139.395 0 0 1 8.667-3.175h.033c1.026-.331 2.05-.661 3.076-.959 0 0 .066.298.166.86 1.29 6.417 6.57 55.321 45.967 81.574 38.365 25.564 92.698 7.739 92.698 7.739-2.878 30.631-4.995 64.966 2.646 90.999H585.34z"/><path fill="#FFA63B" d="M776.535 563.136c-.331 3.473-.628 6.98-.926 10.519-84.979 22.792-137.872-25.437-145.579-98.144a93.056 93.056 0 0 1 4.565-1.588h.033c1.026-.331 2.05-.661 3.076-.959 0 0 .066.298.166.86 1.29 6.417 6.583 55.307 45.979 81.572 38.338 25.569 92.686 7.74 92.686 7.74z"/><path fill="#F0DED3" d="M633.784 526.732s21.757 76.403 112.588 73.886c0 0-85.806 23.624-112.588-73.886zM629.815 573.064s11.985 86.154 94.195 97.408c0 0-91.538 2.558-94.195-97.408z"/><path fill="#FFCCBD" d="M526.337 644.788c15.552 28.893 142.633 2.34 142.633 2.34s18.666-5.841 14.391-26.424c-3.796-18.261 3.391-48.738 1.087-52.479-4.312-7.002-12.843 8.311-17.726 21.504-4.865 13.193-8.605 34.403-8.605 34.403s-77.412.405-82.203-7.573c-.81-1.345 3.697-12.622 12.966-25.41 13.12-18.132 28.043-39.267 28.043-39.267l-15.854-49.901c-9.49 4.92-41.453 26.407-57.945 59.759-15.552 31.509-26.203 65.561-16.787 83.048z"/><path fill="#D6434B" d="M538.094 566.332c13.951 14.185 35.265 28.457 48.844 31.937 8.267-12.392 35.47-42.929 35.176-42.253l-2.772-75.731c-28.898 13.983-65.282 53.188-81.248 86.047z"/><path fill="#D1D3D4" d="m576.023 595.461-.218-.098.218.098z"/><path fill="#FFCCBD" d="m679.89 745.261 12.611 46.236c19.722-2.296 98.383-4.831 99.303-23.256 1.202-24.057-42.489-5.63-50.035-14.346-20.621-23.816-22.339-11.989-61.879-8.634z"/><path fill="#FFA63B" d="m680.702 742.608 14.742 50.804-10.989.799-13.068-50.926z"/><path fill="#FFCCBD" d="M818.654 569.435c-18.876-37.43-49.264-81.437-59.083-85.66l-18.688 72.824s17.474 23.163 32.36 46.166c8.58 13.26 10.711 20.271 9.169 23.622-3.89 8.455-65.697 28.766-65.697 28.766l-.299 22.756s103.224-1.253 118.741-30.164c10.355-19.293-.68-46.935-16.503-78.31z"/><path fill="#FFCCBD" d="M718.492 677.534c3.342-.269 8.678-.742 15.131-1.47 6.218-.702 10.731-6.253 10.141-12.483l-.191-2.017c-.697-7.358-5.245-8.322-14.245-8.085l-9.203 1.101a11.465 11.465 0 0 1-7.907-.222c-9.548-3.814-19.282-11.872-22.494-7.169-4.143 6.067 11.347 9.859 8.226 11.591-9.575 5.326-39.563.226-39.856 4.383-.685 9.742 23.434 29.156 56.854 15.237a11.67 11.67 0 0 1 3.544-.866z"/><path fill="#FFA63B" d="M306.252 907.076h15.624V922.7h-15.624zM351.552 907.076h15.624V922.7h-15.624zM396.853 907.076h15.624V922.7h-15.624zM951.523 907.076h15.624V922.7h-15.624zM996.824 907.076h15.624V922.7h-15.624zM1042.124 907.076h15.624V922.7h-15.624z"/></svg>